<svg width="64" height="52" viewBox="0 0 64 52" fill="none" xmlns="http://www.w3.org/2000/svg">
<rect width="52" height="7.42857" rx="3.71429" fill="#0D0D26"/>
<path d="M0 48.2857C0 46.2344 1.66294 44.5714 3.71429 44.5714H52C54.0513 44.5714 55.7143 46.2344 55.7143 48.2857C55.7143 50.337 54.0513 52 52 52H3.71429C1.66294 52 0 50.337 0 48.2857Z" fill="#0D0D26"/>
<path d="M0 26.0001C0 23.9487 1.66294 22.2858 3.71429 22.2858H59.4286C61.4799 22.2858 63.1429 23.9487 63.1429 26.0001C63.1429 28.0514 61.4799 29.7143 59.4286 29.7143H3.71429C1.66295 29.7143 0 28.0514 0 26.0001Z" fill="#0D0D26"/>
</svg>
